<svg viewBox="0 0 300 250" fill="none" xmlns="http://www.w3.org/2000/svg">
  <defs>
    <linearGradient id="goldGradient" x1="0%" y1="0%" x2="100%" y2="100%">
      <stop offset="0%" style="stop-color:#FDF5E6;stop-opacity:1" />
      <stop offset="20%" style="stop-color:#FFD700;stop-opacity:1" />
      <stop offset="50%" style="stop-color:#C5A059;stop-opacity:1" />
      <stop offset="80%" style="stop-color:#8B6508;stop-opacity:1" />
      <stop offset="100%" style="stop-color:#C5A059;stop-opacity:1" />
    </linearGradient>
  </defs>
  <path 
    d="M150 230 C150 230 20 160 20 85 C20 40 60 20 90 20 C115 20 135 35 150 55 C165 35 185 20 210 20 C240 20 280 40 280 85 C280 160 150 230 150 230Z" 
    stroke="url(#goldGradient)" 
    stroke-width="12"
    fill="transparent"
  />
  <path 
    d="M70 45 Q150 100 230 45 M45 80 Q150 140 255 80 M35 120 Q150 180 265 120 M150 25 L150 220 M80 30 Q100 120 100 200 M220 30 Q200 120 200 200" 
    stroke="url(#goldGradient)" 
    stroke-width="3" 
    opacity="0.6"
  />
  <ellipse 
    cx="150" 
    cy="120" 
    rx="145" 
    ry="35" 
    stroke="url(#goldGradient)" 
    stroke-width="6"
    fill="transparent"
    transform="rotate(-5, 150, 120)"
  />
</svg>
